<?xml version="1.0" standalone="no"?>
<!DOCTYPE svg PUBLIC "-//W3C//DTD SVG 20010904//EN"
 "http://www.w3.org/TR/2001/REC-SVG-20010904/DTD/svg10.dtd">
<svg version="1.0" xmlns="http://www.w3.org/2000/svg"
 width="500.000000pt" height="500.000000pt" viewBox="0 0 500.000000 500.000000"
 preserveAspectRatio="xMidYMid meet">

<g transform="translate(0.000000,500.000000) scale(0.100000,-0.100000)"
fill="#000000" stroke="none">
<path d="M2580 3800 c-88 -21 -142 -56 -197 -128 l-18 -23 -56 30 c-31 17 -75
38 -99 46 -37 13 -41 13 -30 0 15 -19 15 -19 -60 1 -69 18 -86 14 -43 -11 17
-9 20 -14 8 -11 -26 7 -126 26 -134 26 -3 0 3 -7 13 -15 11 -8 16 -15 12 -15
-5 0 -25 14 -46 30 -102 81 -203 86 -405 23 -103 -32 -115 -42 -79 -61 40 -21
72 -60 104 -128 29 -61 97 -134 125 -134 26 0 16 -15 -22 -35 -61 -32 -210
-183 -267 -270 -109 -166 -114 -185 -15 -59 43 54 122 128 159 149 8 4 -8 -16
-36 -46 -67 -70 -119 -140 -150 -200 -26 -53 -29 -63 -14 -54 6 4 -14 -26 -44
-66 -52 -69 -123 -192 -145 -251 l-10 -27 52 31 c29 17 63 38 77 48 54 37 53
31 -7 -33 -34 -37 -81 -95 -104 -129 -23 -35 -50 -72 -60 -83 -36 -40 -119
-197 -119 -224 0 -53 77 -235 145 -340 13 -20 30 -61 39 -91 16 -57 138 -254
212 -341 37 -44 171 -164 218 -194 11 -8 53 -20 91 -29 39 -8 78 -17 87 -21
16 -6 17 -4 7 25 -21 58 -6 204 32 315 31 92 34 110 34 220 0 116 -1 122 -34
189 -28 59 -33 77 -29 122 3 31 12 62 21 72 24 26 90 44 135 37 31 -5 34 -4
18 6 -27 16 -121 6 -146 -16 -24 -21 -25 -14 -6 23 23 44 112 121 171 148 91
42 205 59 310 46 105 -13 229 -53 262 -84 12 -11 36 -49 52 -84 32 -68 84
-115 151 -135 l37 -11 -24 -24 c-31 -31 -32 -95 -2 -115 18 -13 13 -14 -48
-14 -110 -1 -303 -49 -357 -88 -16 -11 -6 -12 55 -1 41 7 108 13 149 13 l75 0
-80 -39 c-105 -51 -127 -75 -133 -144 -4 -45 1 -63 29 -119 18 -37 52 -90 76
-119 23 -29 86 -108 139 -176 67 -85 102 -121 113 -118 261 75 344 112 501
221 l85 60 -257 3 c-212 2 -258 5 -268 17 -11 13 22 15 277 15 l289 0 52 53
c29 29 52 56 52 60 0 4 -211 7 -469 7 -404 0 -470 2 -481 15 -11 13 44 15 488
15 l500 0 41 47 c23 27 41 51 41 56 0 4 -244 7 -542 7 l-543 1 45 24 45 24
516 1 515 0 28 41 c14 23 24 44 20 48 -3 3 -211 6 -462 6 l-457 0 -48 -37
c-27 -21 -54 -38 -60 -38 -14 0 63 53 131 90 33 18 52 37 67 68 l20 42 442 0
c387 0 443 2 443 15 0 13 -55 15 -438 15 l-439 0 -11 39 c-15 47 -23 54 -92
76 -100 31 -139 68 -164 152 -6 18 -1 25 25 38 30 16 34 16 103 -14 82 -35
127 -47 211 -55 81 -9 207 15 280 52 33 16 87 35 120 42 162 33 265 139 265
272 0 32 -6 73 -14 91 -16 40 -79 96 -115 103 -24 5 -30 13 -40 57 -16 75 -53
146 -97 191 -37 37 -149 116 -165 116 -4 0 9 -33 28 -72 37 -76 54 -171 36
-202 -8 -14 -17 -11 -73 28 -35 25 -70 57 -79 73 -8 15 -17 65 -19 111 l-5 83
-33 -32 c-19 -18 -36 -41 -40 -51 -11 -35 -37 -19 -122 76 l-44 48 7 67 c15
146 -45 230 -166 234 -39 2 -48 5 -43 17 14 33 34 116 34 143 0 36 24 83 63
125 l31 32 -85 -1 c-46 -1 -100 -5 -119 -9z m-729 -91 c48 -24 87 -71 95 -115
11 -61 -1 -193 -19 -212 -16 -15 -17 -13 -17 39 0 121 -52 214 -132 238 -24 7
-50 16 -59 21 -8 4 -28 6 -45 4 -59 -7 -104 -8 -109 -2 -6 6 62 33 120 47 51
12 119 4 166 -20z m785 3 c-8 -16 -18 -53 -22 -83 -4 -30 -12 -64 -18 -77 -11
-21 -12 -20 -12 15 0 56 -7 103 -15 103 -13 0 -67 -59 -74 -80 -8 -26 -18 -25
-51 3 l-28 24 40 42 c39 42 120 80 172 81 22 0 22 -1 8 -28z m-435 -80 c24
-16 53 -39 63 -50 30 -35 40 -25 16 16 l-22 37 48 -45 c26 -25 43 -38 38 -30
-6 12 -2 11 16 -3 87 -61 221 -113 318 -123 55 -6 72 -12 96 -36 l29 -29 -6
-105 -5 -104 38 -52 c73 -101 248 -238 400 -313 58 -28 105 -55 105 -61 0 -5
-22 -24 -50 -43 -27 -18 -63 -45 -80 -60 -18 -16 -23 -18 -12 -5 9 11 14 24
10 29 -5 4 -2 5 6 0 10 -6 12 -4 6 5 -12 19 -62 -44 -77 -95 l-11 -40 -8 30
c-5 16 -6 40 -2 54 10 42 -15 14 -29 -32 l-13 -42 -6 51 c-11 90 -56 147 -116
146 -61 0 -131 64 -203 188 -41 70 -44 73 -53 49 -15 -37 -14 -207 2 -264 8
-27 22 -67 33 -87 10 -21 18 -40 18 -43 0 -11 -54 -4 -113 16 -73 24 -125 70
-194 172 -26 37 -51 67 -57 67 -7 0 -20 15 -30 34 -25 48 -76 95 -114 106 -18
5 -30 5 -27 0 10 -16 -84 -23 -122 -9 -83 32 -125 138 -88 224 l16 40 15 -40
c7 -22 14 -42 14 -44 0 -2 3 -1 7 2 4 4 18 -3 32 -16 14 -13 35 -27 46 -31 20
-6 20 -6 1 9 -26 20 -16 28 18 15 15 -5 42 -10 59 -10 72 -1 178 -79 193 -142
l8 -33 7 30 c21 91 -2 217 -54 293 -77 114 -205 143 -295 67 l-28 -23 -2 24
c-1 17 2 23 10 18 7 -4 8 -3 4 5 -9 14 -56 -17 -80 -55 -10 -14 -20 -23 -23
-20 -3 3 9 27 26 54 17 27 31 61 31 76 0 15 4 25 9 22 5 -3 12 1 15 9 8 21
103 65 141 66 17 0 25 3 18 5 -7 3 -9 12 -6 21 3 8 0 19 -8 24 -11 7 -11 9 -1
9 26 0 -1 22 -62 51 -33 16 -52 29 -41 29 28 -1 130 -55 128 -68 -2 -6 6 -9
17 -7 11 2 20 -1 20 -7 0 -6 3 -8 7 -5 8 9 -43 64 -82 88 -16 11 -25 19 -19
19 5 0 30 -13 55 -28z m-447 -114 c48 -46 49 -48 24 -48 -15 0 -41 12 -59 28
-18 15 -30 21 -25 15 12 -21 1 -14 -25 14 -13 15 -16 21 -6 14 21 -16 21 -5 2
29 -8 14 -14 34 -15 45 0 16 5 13 27 -15 15 -19 49 -56 77 -82z m373 56 c-3
-3 -12 -4 -19 -1 -8 3 -5 6 6 6 11 1 17 -2 13 -5z m169 -320 c19 -19 34 -41
34 -47 0 -7 -5 -4 -10 5 -6 9 -27 31 -47 47 -21 17 -31 31 -24 31 8 0 29 -16
47 -36z m-108 -81 c7 -12 21 -25 33 -28 22 -7 79 12 79 27 0 5 5 6 12 2 18
-11 -39 -54 -72 -54 -31 0 -85 40 -95 70 -3 11 0 30 6 42 l13 23 6 -30 c4 -16
12 -40 18 -52z m85 61 c9 -10 -4 -34 -18 -34 -17 0 -28 17 -20 30 7 11 28 13
38 4z m-634 -8 c-2 -2 -15 -9 -29 -15 -24 -11 -24 -11 -6 3 16 13 49 24 35 12z
m221 -32 c-13 -33 -13 -47 0 -39 6 4 9 9 6 13 -2 4 6 16 16 27 l20 20 -5 -20
c-37 -128 -57 -236 -39 -208 4 7 6 -17 4 -52 -3 -51 0 -71 14 -92 12 -19 20
-59 25 -126 8 -104 29 -180 64 -237 12 -19 25 -41 29 -49 6 -8 -1 -7 -20 5
-43 26 -84 66 -78 75 2 4 -5 13 -16 19 -11 6 -20 17 -20 25 0 8 -9 19 -21 26
-20 10 -21 9 -15 -50 4 -34 16 -86 27 -117 12 -30 19 -57 17 -58 -59 -44 -76
-56 -81 -56 -3 0 -8 24 -12 53 -7 47 -9 50 -18 27 -40 -100 -83 -176 -139
-245 -36 -44 -73 -87 -83 -95 -16 -14 -17 -13 -12 5 3 11 11 40 17 65 18 72
33 109 42 104 4 -3 5 1 3 8 -3 8 17 60 44 116 50 102 54 133 10 86 -19 -20
-20 -24 -5 -18 18 7 18 6 0 -22 -11 -16 -26 -36 -34 -44 -8 -8 -24 -26 -35
-40 -33 -41 -174 -150 -195 -150 -5 0 -10 6 -10 13 0 20 39 89 68 119 14 15
23 31 19 34 -3 4 -18 -8 -32 -25 -15 -17 -33 -31 -40 -31 -8 0 -17 -9 -20 -20
-5 -15 -13 -19 -31 -16 -14 3 -22 1 -19 -5 4 -5 11 -7 16 -4 15 10 10 -2 -8
-16 -9 -8 -14 -9 -10 -3 4 7 -1 15 -10 18 -20 8 -40 -9 -22 -19 8 -5 10 -4 5
3 -4 7 -2 12 3 12 22 0 10 -18 -36 -50 -52 -38 -51 -35 28 70 30 41 67 91 80
111 38 56 120 168 166 225 68 85 17 56 -134 -75 -46 -39 -84 -71 -86 -71 -2 0
-2 13 -1 30 1 16 -2 27 -7 24 -5 -3 -7 -10 -4 -15 4 -5 1 -9 -4 -9 -6 0 -11 4
-11 10 0 12 201 240 212 240 4 0 8 4 8 10 0 13 -115 -55 -175 -104 -50 -42
-51 -38 -6 24 71 98 131 165 205 228 71 61 155 117 162 109 3 -2 -40 -189 -52
-232 -4 -13 -3 -16 3 -10 5 6 31 69 58 140 26 72 53 137 60 145 7 8 24 40 38
70 38 88 103 184 77 114z m-280 2 c0 -2 -8 -10 -17 -17 -16 -13 -17 -12 -4 4
13 16 21 21 21 13z m60 -23 c-62 -36 -183 -127 -239 -177 -25 -22 -36 -30 -26
-16 54 68 185 172 256 203 54 24 58 19 9 -10z m1712 -211 c20 -42 30 -143 16
-157 -4 -4 -16 -4 -28 0 -16 5 -20 12 -16 28 11 41 -15 145 -51 204 l-34 58
46 -45 c25 -24 55 -64 67 -88z m-1838 21 c-33 -32 -93 -94 -133 -138 -74 -81
-56 -46 28 54 39 47 147 141 161 141 2 0 -22 -26 -56 -57z m492 -146 c13 -2
21 0 18 4 -8 14 10 10 34 -7 26 -18 140 -58 194 -68 31 -6 45 -18 89 -79 28
-40 74 -96 102 -124 l51 -53 -56 0 c-85 0 -224 28 -285 56 -107 51 -152 109
-197 252 -33 105 -33 130 0 70 17 -30 35 -48 50 -51z m798 -52 c21 -27 54 -63
72 -78 38 -32 64 -75 64 -107 0 -21 0 -21 -30 -3 -49 28 -78 65 -126 154 -36
67 -44 77 -39 49 17 -101 109 -239 181 -272 17 -8 24 -19 24 -40 0 -27 -2 -28
-22 -17 -52 28 -83 57 -120 113 -46 72 -74 158 -83 257 l-7 74 24 -40 c13 -22
41 -62 62 -90z m625 13 c1 -10 -6 -18 -15 -18 -12 0 -15 6 -10 23 3 12 6 31 7
42 1 17 2 16 9 -5 4 -14 8 -33 9 -42z m106 -106 c11 -10 25 -24 32 -32 14 -17
17 -108 4 -142 -13 -35 -60 -81 -76 -74 -7 2 -16 0 -18 -7 -3 -7 -4 -2 -4 9 1
13 6 20 13 17 17 -6 53 35 64 75 10 39 -2 74 -23 66 -17 -6 -47 -57 -47 -79 0
-11 -5 -15 -15 -11 -12 4 -21 -6 -35 -38 -21 -50 -52 -76 -92 -76 -32 0 -58
32 -58 71 0 16 -6 26 -15 26 -8 0 -12 -4 -10 -8 3 -3 -2 -12 -10 -19 -12 -10
-15 -9 -16 6 -1 14 -3 13 -9 -6 -7 -20 -8 -16 -10 25 l-2 50 -13 -30 c-8 -16
-14 -23 -15 -15 -1 53 129 170 228 206 43 16 98 10 127 -14z m-520 -26 c13
-13 28 -41 34 -62 14 -50 14 -117 1 -109 -5 3 -10 17 -10 31 0 26 -17 33 -26
9 -4 -8 -10 -15 -16 -15 -5 0 -7 3 -4 8 9 15 -14 104 -35 133 l-20 29 26 0
c14 0 37 -11 50 -24z m162 -218 c-3 -7 -5 -2 -5 12 0 14 2 19 5 13 2 -7 2 -19
0 -25z m-1869 -39 c7 -2 -19 -28 -58 -57 -62 -46 -74 -52 -88 -40 -15 11 -15
11 -5 -3 11 -13 6 -21 -34 -50 l-48 -34 23 33 c13 17 28 32 33 32 5 0 9 6 9
13 1 15 60 94 61 81 1 -5 1 -13 0 -17 -1 -5 9 0 23 10 13 10 22 20 20 22 -2 2
-10 -2 -19 -9 -24 -20 -19 9 7 37 21 23 22 23 42 4 12 -10 27 -20 34 -22z
m355 16 c-3 -9 -8 -14 -10 -11 -3 3 -2 9 2 15 9 16 15 13 8 -4z m1832 -5 c-3
-5 -14 -10 -23 -9 -14 0 -13 2 3 9 27 11 27 11 20 0z m-657 -402 c22 -22 12
-33 -28 -32 -49 1 -56 7 -35 28 19 19 46 21 63 4z m-1168 -137 c-16 -34 -32
-61 -35 -61 -8 0 7 62 28 120 20 53 21 54 29 28 7 -21 3 -39 -22 -87z"/>
<path d="M1702 2880 c-7 -12 -10 -24 -8 -29 15 -23 -68 -286 -130 -416 -21
-44 -40 -84 -42 -90 -2 -5 12 6 31 26 77 79 144 218 178 367 10 48 22 98 25
111 5 16 4 22 -4 17 -6 -3 -13 3 -17 14 -8 25 -17 25 -33 0z"/>
<path d="M3332 2553 c-56 -57 -55 -134 2 -133 57 1 104 91 80 154 -10 27 -44
18 -82 -21z"/>
<path d="M1242 2421 c-10 -6 -8 -10 9 -14 13 -4 25 -4 28 -2 2 3 -1 5 -8 5 -7
0 -9 5 -6 10 8 12 -5 13 -23 1z"/>
<path d="M2240 2187 c-25 -13 -61 -32 -80 -43 -19 -10 -37 -20 -39 -21 -9 -5
84 -103 107 -112 15 -6 41 -16 57 -22 l30 -12 -25 -7 c-23 -7 -22 -8 13 -15
35 -7 66 -1 127 22 10 4 9 -1 -5 -18 l-20 -23 29 18 c16 10 49 34 73 52 25 19
54 34 66 34 20 0 19 2 -8 20 -16 10 -47 41 -68 68 -62 83 -164 106 -257 59z
m138 -74 c-2 -10 -10 -18 -18 -18 -8 0 -16 8 -18 18 -2 12 3 17 18 17 15 0 20
-5 18 -17z m-46 -56 c25 -19 28 -19 52 -3 27 17 35 9 14 -12 -33 -33 -118 1
-118 46 0 29 14 36 20 11 3 -12 17 -31 32 -42z m-48 -46 c-2 -3 -12 3 -22 13
-16 17 -16 18 5 5 12 -7 20 -15 17 -18z"/>
<path d="M1827 2102 c-44 -48 -41 -99 12 -175 84 -122 155 -128 180 -16 23
104 -48 209 -142 209 -20 0 -41 -7 -50 -18z"/>
<path d="M1866 1808 c29 -80 22 -159 -25 -297 -43 -122 -43 -126 -39 -230 5
-127 15 -151 63 -151 38 0 40 2 26 28 -4 9 -11 32 -15 51 -5 30 -4 32 10 20
15 -12 16 -11 9 10 -19 60 4 220 36 256 5 5 9 14 9 20 -1 5 -14 -6 -30 -25
-37 -42 -37 -38 -2 47 28 70 36 165 19 226 -6 24 -5 27 15 28 20 0 19 2 -7 11
-16 6 -37 16 -45 23 -36 29 -40 26 -24 -17z"/>
<path d="M2486 1144 c14 -38 28 -72 30 -76 9 -14 64 -9 64 5 0 14 -95 129
-111 135 -5 2 3 -27 17 -64z"/>
<path d="M2320 1104 c0 -28 4 -32 30 -36 17 -3 30 -3 30 -1 0 2 -13 18 -30 36
l-30 32 0 -31z"/>
</g>
</svg>
